<?xml version="1.0" encoding="UTF-8"?>
<!DOCTYPE svg PUBLIC "-//W3C//DTD SVG 1.1//EN" "http://www.w3.org/Graphics/SVG/1.1/DTD/svg11.dtd">
<svg xmlns="http://www.w3.org/2000/svg" version="1.1" width="266px" height="73px" style="shape-rendering:geometricPrecision; text-rendering:geometricPrecision; image-rendering:optimizeQuality; fill-rule:evenodd; clip-rule:evenodd" xmlns:xlink="http://www.w3.org/1999/xlink">
<g><path style="opacity:0.129" fill="#a8f0f0" d="M 35.5,-0.5 C 35.8333,-0.5 36.1667,-0.5 36.5,-0.5C 36.5,5.83333 36.5,12.1667 36.5,18.5C 34.5,18.5 32.5,18.5 30.5,18.5C 31.9187,17.5489 33.5853,17.2155 35.5,17.5C 35.5,11.5 35.5,5.5 35.5,-0.5 Z"/></g>
<g><path style="opacity:1" fill="#62e2e6" d="M 26.5,-0.5 C 29.5,-0.5 32.5,-0.5 35.5,-0.5C 35.5,5.5 35.5,11.5 35.5,17.5C 33.5853,17.2155 31.9187,17.5489 30.5,18.5C 22.8297,21.4868 18.8297,27.1535 18.5,35.5C 12.1667,35.5 5.83333,35.5 -0.5,35.5C -0.5,32.5 -0.5,29.5 -0.5,26.5C 4.16667,13.1667 13.1667,4.16667 26.5,-0.5 Z"/></g>
<g><path style="opacity:1" fill="#f8fdfd" d="M 46.5,32.5 C 46.5,33.5 46.5,34.5 46.5,35.5C 38.7572,36.1299 31.4238,35.4633 24.5,33.5C 25.5633,27.4412 29.23,24.1079 35.5,23.5C 41.3539,24.0349 45.0206,27.0349 46.5,32.5 Z"/></g>
<g><path style="opacity:0.893" fill="#5be1e6" d="M 243.5,26.5 C 245.833,26.5 248.167,26.5 250.5,26.5C 250.334,31.5111 250.501,36.5111 251,41.5C 253.19,39.6116 255.023,37.4449 256.5,35C 259.227,34.1816 261.894,34.3483 264.5,35.5C 261.313,38.8528 258.313,42.3528 255.5,46C 258.5,49.6667 261.5,53.3333 264.5,57C 261.833,57.6667 259.167,57.6667 256.5,57C 254.548,54.9261 252.715,52.7594 251,50.5C 250.503,52.8098 250.337,55.1432 250.5,57.5C 248.167,57.5 245.833,57.5 243.5,57.5C 243.5,47.1667 243.5,36.8333 243.5,26.5 Z"/></g>
<g><path style="opacity:0.921" fill="#fefffe" d="M 77.5,28.5 C 80.5,28.5 83.5,28.5 86.5,28.5C 86.6165,42.3463 89.2831,42.5129 94.5,29C 97.4816,28.502 100.482,28.3354 103.5,28.5C 102.642,34.0492 100.309,38.8825 96.5,43C 99.7799,47.3927 102.113,52.226 103.5,57.5C 100.102,57.8204 96.7683,57.487 93.5,56.5C 91.8674,53.0397 90.034,49.7064 88,46.5C 86.5845,49.9582 86.0845,53.6249 86.5,57.5C 83.5,57.5 80.5,57.5 77.5,57.5C 77.5,47.8333 77.5,38.1667 77.5,28.5 Z"/></g>
<g><path style="opacity:0.853" fill="#fefffe" d="M 107.5,28.5 C 113.113,27.079 115.28,29.079 114,34.5C 111.936,35.5914 109.769,35.7581 107.5,35C 104.939,32.8441 104.939,30.6774 107.5,28.5 Z"/></g>
<g><path style="opacity:0.881" fill="#5be1e6" d="M 163.5,28.5 C 169.509,28.3338 175.509,28.5005 181.5,29C 186.397,33.1218 186.73,37.6218 182.5,42.5C 188.118,47.8661 187.785,52.6995 181.5,57C 175.509,57.4995 169.509,57.6662 163.5,57.5C 163.5,47.8333 163.5,38.1667 163.5,28.5 Z M 170.5,33.5 C 174.367,32.7747 177.034,34.1081 178.5,37.5C 178.182,38.6473 177.516,39.4806 176.5,40C 174.527,40.4955 172.527,40.6621 170.5,40.5C 170.5,38.1667 170.5,35.8333 170.5,33.5 Z M 170.5,45.5 C 172.857,45.3367 175.19,45.5034 177.5,46C 180.326,48.5219 179.993,50.5219 176.5,52C 174.527,52.4955 172.527,52.6621 170.5,52.5C 170.5,50.1667 170.5,47.8333 170.5,45.5 Z"/></g>
<g><path style="opacity:0.891" fill="#5ce1e6" d="M 194.5,34.5 C 197.518,34.3354 200.518,34.502 203.5,35C 204,35.5 204.5,36 205,36.5C 207.106,34.709 209.606,34.0423 212.5,34.5C 212.5,42.1667 212.5,49.8333 212.5,57.5C 209.606,57.9577 207.106,57.291 205,55.5C 200.411,59.3673 195.744,59.3673 191,55.5C 188.599,50.7683 187.932,45.7683 189,40.5C 190.36,37.9774 192.193,35.9774 194.5,34.5 Z M 197.5,40.5 C 204.503,39.6727 207.003,42.6727 205,49.5C 200.068,53.4733 196.568,52.3067 194.5,46C 195.223,43.9817 196.223,42.1484 197.5,40.5 Z"/></g>
<g><path style="opacity:0.872" fill="#5be1e6" d="M 216.5,34.5 C 219.394,34.0423 221.894,34.709 224,36.5C 228.052,34.0577 232.219,33.891 236.5,36C 237.701,36.9025 238.535,38.0692 239,39.5C 239.499,45.4908 239.666,51.4908 239.5,57.5C 237.167,57.5 234.833,57.5 232.5,57.5C 232.666,52.1563 232.499,46.8229 232,41.5C 229.085,38.93 226.419,39.2634 224,42.5C 223.501,47.4889 223.334,52.4889 223.5,57.5C 221.167,57.5 218.833,57.5 216.5,57.5C 216.5,49.8333 216.5,42.1667 216.5,34.5 Z"/></g>
<g><path style="opacity:0.938" fill="#fefefe" d="M -0.5,35.5 C 5.83333,35.5 12.1667,35.5 18.5,35.5C 19.3742,46.2088 25.2075,52.2088 36,53.5C 45.8599,51.6401 51.6932,45.8068 53.5,36C 59.8246,35.5005 66.1579,35.3338 72.5,35.5C 70.4803,56.6202 59.1469,68.9535 38.5,72.5C 36.5,72.5 34.5,72.5 32.5,72.5C 16.0214,69.6925 5.02144,60.3592 -0.5,44.5C -0.5,41.5 -0.5,38.5 -0.5,35.5 Z"/></g>
<g><path style="opacity:0.949" fill="#5ee1e6" d="M 46.5,32.5 C 48.0423,41.0253 44.3756,46.0253 35.5,47.5C 27.1448,46.1773 23.4782,41.5107 24.5,33.5C 31.4238,35.4633 38.7572,36.1299 46.5,35.5C 46.5,34.5 46.5,33.5 46.5,32.5 Z"/></g>
<g><path style="opacity:0.929" fill="#fefffe" d="M 105.5,37.5 C 108.5,37.5 111.5,37.5 114.5,37.5C 114.5,44.1667 114.5,50.8333 114.5,57.5C 111.833,57.5 109.167,57.5 106.5,57.5C 106.756,50.7756 106.423,44.109 105.5,37.5 Z"/></g>
<g><path style="opacity:0.909" fill="#fefffe" d="M 116.5,37.5 C 119.167,37.5 121.833,37.5 124.5,37.5C 123.923,41.8691 124.757,45.8691 127,49.5C 129.243,45.8691 130.077,41.8691 129.5,37.5C 132.167,37.5 134.833,37.5 137.5,37.5C 138.895,45.1028 136.895,51.6028 131.5,57C 128.446,57.8214 125.446,57.6548 122.5,56.5C 117.077,51.3197 115.077,44.9863 116.5,37.5 Z"/></g>
<g><path style="opacity:0.885" fill="#fefffe" d="M 140.5,37.5 C 143.167,37.5 145.833,37.5 148.5,37.5C 148.334,41.5138 148.501,45.5138 149,49.5C 150.113,50.7111 151.28,50.7111 152.5,49.5C 153.491,45.5546 153.824,41.5546 153.5,37.5C 156.5,37.5 159.5,37.5 162.5,37.5C 161.167,44.1667 161.167,50.8333 162.5,57.5C 158.97,58.0111 155.804,57.3444 153,55.5C 143.406,59.9272 138.906,56.7605 139.5,46C 139.798,43.1523 140.131,40.3189 140.5,37.5 Z"/></g>
</svg>
